<svg width="1008" height="202" viewBox="0 0 1008 202" fill="none" xmlns="http://www.w3.org/2000/svg">
  <mask id="mask0_10_43" style="mask-type:luminance" maskUnits="userSpaceOnUse" x="0" y="30" width="166" height="142">
    <path d="M166 30.5283H0V171.472H166V30.5283Z" fill="white" />
  </mask>
  <g mask="url(#mask0_10_43)">
    <path
      d="M155.736 116.287C155.736 119.533 155.147 122.638 154.068 125.501C150.377 135.278 140.999 142.224 130.008 142.224C118.761 142.224 109.204 134.949 105.704 124.809C84.9262 126.315 73.0446 116.952 68.1043 99.1053C55.6249 95.6834 46.4519 84.1795 46.4519 70.5122C46.4519 61.673 50.2911 53.736 56.38 48.3104C61.5611 43.6858 68.3753 40.8804 75.8401 40.8804C84.3921 40.8804 92.0931 44.5619 97.4568 50.4466C101.065 48.0679 105.376 46.6891 110.007 46.6891C113.239 46.6891 116.319 47.3634 119.11 48.5789C127.186 52.0936 132.866 60.1443 132.992 69.548C132.996 69.658 132.996 69.7637 132.996 69.8741L132.992 70.2661V70.2704C134.166 70.0105 135.385 69.8741 136.639 69.8741C142.239 69.8741 147.215 72.5785 150.35 76.7624H150.355C152.53 79.6649 153.819 83.2807 153.819 87.2006C153.826 91.266 152.406 95.2028 149.809 98.3125C149.614 98.5523 149.411 98.7859 149.201 99.0128C153.268 103.598 155.736 109.654 155.736 116.287Z"
      fill="#FF5CAA" />
    <path
      d="M109.718 68.4169C105.064 73.5175 102.221 80.3259 102.221 87.8041C102.221 103.62 114.938 116.442 130.623 116.442C132.647 116.443 134.665 116.227 136.644 115.797M74.5947 59.1728C75.3053 69.516 83.8519 77.6843 94.2903 77.6843M125.689 73.8433C127.8 72.0747 130.304 70.8478 132.987 70.2675M97.4529 50.4433C94.1462 52.6142 91.4292 55.6228 89.5992 59.1728"
      stroke="#103849" stroke-width="4.48173" stroke-miterlimit="10" stroke-linecap="round" stroke-linejoin="round" />
    <path
      d="M155.733 116.282C155.733 130.609 144.215 142.22 130.005 142.22C118.758 142.22 109.201 134.944 105.701 124.805C84.9232 126.31 73.0417 116.947 68.1014 99.1006C55.622 95.6788 46.449 84.1749 46.449 70.5077C46.449 54.1416 59.6053 40.8757 75.8372 40.8757C84.3891 40.8757 92.0901 44.5573 97.4546 50.442C101.062 48.0633 105.373 46.6846 110.004 46.6846C122.701 46.6846 132.993 57.0661 132.993 69.8694L132.989 70.2616V70.2659C134.163 70.0059 135.382 69.8694 136.636 69.8694C146.123 69.8694 153.815 77.6252 153.815 87.1961C153.815 91.7634 152.064 95.9123 149.198 99.0082C153.265 103.593 155.733 109.649 155.733 116.282Z"
      stroke="#103849" stroke-width="3.92125" stroke-miterlimit="10" stroke-linejoin="round" />
    <path
      d="M149.199 99.0082C149.199 99.0082 147.205 96.9215 144.477 94.7496M72.4834 146.047C71.3573 143.675 70.6368 141.129 70.3523 138.514"
      stroke="#103849" stroke-width="4.48173" stroke-miterlimit="10" stroke-linecap="round" stroke-linejoin="round" />
    <path
      d="M122.928 128.009C123.837 130.553 124.301 133.237 124.299 135.941C124.299 149.85 112.191 161.12 97.2516 161.12C86.1742 161.12 76.6558 154.923 72.4802 146.049C69.0387 148.406 64.9102 149.78 60.4767 149.78C50.5356 149.78 42.1485 142.882 39.5191 133.448C37.6419 133.92 35.7143 134.158 33.7795 134.157C20.7932 134.157 10.2617 123.542 10.2617 110.444C10.2617 100.384 16.4773 91.7874 25.2483 88.3473C24.9034 86.9074 24.7199 85.4144 24.7199 83.8816C24.7199 72.0032 35.6665 62.3752 49.1724 62.3752C56.9258 62.3752 63.8442 65.5545 68.3216 70.5051C71.9125 68.5628 76.0534 67.449 80.4652 67.449C94.1501 67.449 105.245 78.1472 105.245 91.3424C105.246 91.6536 105.239 91.9648 105.223 92.2756C116.515 94.3632 125.097 104.82 125.097 117.407C125.097 121.19 124.324 124.781 122.928 128.009Z"
      fill="#FF5CAA" />
    <path
      d="M114.156 116.288C118.187 119.291 121.272 123.352 122.931 128.012M39.523 133.451C38.9637 131.452 38.6666 129.341 38.6666 127.157C38.6666 118.242 43.642 110.531 50.8669 106.844M31.3767 86.8616C29.2364 87.0819 27.1834 87.5886 25.2524 88.3503M68.3306 70.5125L68.3257 70.5081C65.2554 72.1819 62.5909 74.4638 60.5074 77.1857"
      stroke="#103849" stroke-width="4.48173" stroke-miterlimit="10" stroke-linecap="round" stroke-linejoin="round" />
    <path
      d="M122.94 128.01C123.849 130.554 124.313 133.238 124.311 135.942C124.311 149.852 112.203 161.122 97.2636 161.122C86.187 161.122 76.6684 154.925 72.4927 146.05C69.0512 148.407 64.9227 149.781 60.4892 149.781C50.548 149.781 42.161 142.884 39.5317 133.45C37.6543 133.921 35.7267 134.16 33.792 134.159C20.8057 134.159 10.2742 123.544 10.2742 110.446C10.2742 100.386 16.4899 91.7889 25.2608 88.3489C24.9158 86.909 24.7324 85.4159 24.7324 83.8832C24.7324 72.0047 35.679 62.3767 49.1849 62.3767C56.9383 62.3767 63.8567 65.556 68.3341 70.5067C71.9249 68.5643 76.0658 67.4505 80.478 67.4505C94.1628 67.4505 105.257 78.1488 105.257 91.344C105.259 91.6552 105.251 91.9663 105.235 92.2771C116.527 94.3648 125.11 104.821 125.11 117.409C125.11 121.192 124.337 124.782 122.94 128.009L122.94 128.01Z"
      stroke="#103849" stroke-width="3.92125" stroke-miterlimit="10" stroke-linejoin="round" />
    <path
      d="M84.0851 99.3763C88.4356 94.7607 94.4421 91.902 101.072 91.902C102.488 91.902 103.873 92.0298 105.222 92.2802M103.666 122.282C100.239 126.603 94.9652 129.372 89.0503 129.372C78.7199 129.372 70.3462 120.928 70.3462 110.513C70.3396 106.164 71.83 101.947 74.5632 98.5825"
      stroke="#103849" stroke-width="4.48173" stroke-miterlimit="10" stroke-linecap="round" stroke-linejoin="round" />
    <path
      d="M97.3268 138.709C97.3268 135.005 96.4005 131.521 94.7663 128.478M58.2367 126.663C61.3204 122.056 66.1215 118.722 71.717 117.591M24.8914 110.464C27.2606 109.518 29.7861 109.031 32.3345 109.032C36.4207 109.027 40.4113 110.277 43.7742 112.618M63.3456 93.1064C62.0729 93.4843 60.7258 93.6868 59.3315 93.6868C55.631 93.6917 52.0757 92.2352 49.427 89.6294M124.732 92.1868C126.69 90.7139 129.068 89.9199 131.511 89.9237C132.19 89.9233 132.867 89.984 133.535 90.1051"
      stroke="#103849" stroke-width="4.48173" stroke-miterlimit="10" stroke-linecap="round" stroke-linejoin="round" />
    <path
      d="M151.22 99.0224C153.893 95.6778 155.352 91.5306 155.352 87.2007C155.352 76.7967 146.959 68.3321 136.643 68.3321C135.922 68.3321 135.202 68.3744 134.489 68.4577C133.759 55.4798 123.058 45.1479 110.01 45.1479C105.66 45.1479 101.433 46.2964 97.7098 48.4806C91.9084 42.635 84.0445 39.3474 75.8431 39.3388C62.0965 39.3388 50.4219 48.4343 46.4144 60.9682C33.3845 62.1973 23.1996 72.0047 23.1996 83.8842C23.1996 85.0664 23.3021 86.2507 23.5043 87.4187C14.4931 91.4909 8.7417 100.392 8.7417 110.446C8.7417 124.372 19.9775 135.701 33.7881 135.701C35.3652 135.701 36.9389 135.553 38.4886 135.258C41.7666 144.786 50.6165 151.323 60.4857 151.323C64.4901 151.326 68.4246 150.264 71.8926 148.246C76.7752 157.059 86.5424 162.664 97.2603 162.664C110.309 162.664 121.336 154.439 124.743 143.245C126.456 143.585 128.219 143.765 130.012 143.765C145.041 143.765 157.269 131.438 157.269 116.287C157.269 109.975 155.13 103.896 151.22 99.0224Z"
      stroke="#103849" stroke-width="7.84292" stroke-miterlimit="10" stroke-linejoin="round" />
    <path
      d="M75.8377 30.5283C67.7626 30.5283 59.9951 32.9529 53.3751 37.5395C47.6591 41.4997 43.128 46.8414 40.135 53.1137C25.566 56.6736 15.1498 68.4949 14.4913 82.4737C5.47396 88.7866 0 99.21 0 110.445C0 129.031 14.8399 144.187 33.1986 144.503C38.9955 154.107 49.3296 160.13 60.4802 160.13C63.3288 160.13 66.1281 159.75 68.8433 158.995C75.8708 166.875 86.1955 171.472 97.2549 171.472C104.746 171.472 112.002 169.329 118.24 165.279C123.308 161.988 127.392 157.643 130.218 152.571C149.968 152.457 165.999 136.223 165.999 116.285C165.999 110.125 164.471 104.148 161.552 98.8033C163.22 95.166 164.083 91.2062 164.082 87.1987C164.082 79.9404 161.307 73.0769 156.269 67.8733C152.296 63.7693 147.267 61.0584 141.795 60.0092C139.944 53.9541 136.402 48.4984 131.56 44.3402C125.545 39.1773 117.905 36.3404 110.006 36.3368C106.323 36.3368 102.628 36.9667 99.1458 38.1737C92.3821 33.2221 84.2309 30.5283 75.8377 30.5283ZM75.8377 36.2539C84.025 36.2539 92.0548 39.3196 98.2047 44.7324C101.893 42.9736 105.924 42.062 110.005 42.063C123.596 42.063 135.01 52.0295 137.202 65.2548C148.943 65.5584 158.403 75.2858 158.403 87.199C158.399 91.3733 157.218 95.4602 154.998 98.9834C158.444 104.047 160.32 110.105 160.32 116.285C160.32 133.137 146.721 146.847 130.006 146.847C128.925 146.847 127.84 146.788 126.76 146.67C122.095 158.024 110.339 165.746 97.2541 165.746C86.4633 165.746 76.5745 160.643 70.7726 152.253C67.5233 153.671 64.0207 154.403 60.4802 154.405C50.1646 154.405 40.8344 148.168 36.5382 138.648C35.6228 138.738 34.7019 138.783 33.7826 138.783C18.2863 138.783 5.67871 126.071 5.67871 110.445C5.67871 100.071 11.3096 90.5673 20.2018 85.6319C20.1587 85.0498 20.1371 84.4663 20.1369 83.8825C20.1369 71.0662 30.332 60.2986 44.1589 58.1423C49.2103 44.9698 61.7013 36.2539 75.8377 36.2539Z"
      fill="#F0F0F0" />
  </g>
  <path
    d="M216.56 151V51.6H248.76C259.96 51.6 268.64 53.7467 274.8 58.04C280.96 62.3333 284.04 68.96 284.04 77.92C284.04 81.9333 283.247 85.5267 281.66 88.7C280.073 91.78 277.46 94.3467 273.82 96.4C270.18 98.36 265.28 99.6667 259.12 100.32V99.2C266.213 99.5733 271.86 100.88 276.06 103.12C280.353 105.267 283.433 108.16 285.3 111.8C287.26 115.44 288.24 119.547 288.24 124.12C288.24 133.36 285.113 140.173 278.86 144.56C272.7 148.853 263.6 151 251.56 151H216.56ZM241.76 129.44L251.56 129.3C255.107 129.207 257.813 128.413 259.68 126.92C261.547 125.333 262.48 123.187 262.48 120.48C262.48 117.493 261.547 115.207 259.68 113.62C257.813 111.94 255.107 111.1 251.56 111.1H241.76V129.44ZM241.76 90.38H248.2C251.467 90.38 253.94 89.6333 255.62 88.14C257.393 86.5533 258.28 84.36 258.28 81.56C258.28 78.8533 257.393 76.8 255.62 75.4C253.94 73.9067 251.467 73.16 248.2 73.16H241.76V90.38ZM318.425 151V75.4H335.225L336.905 95.56L335.505 95.84C336.252 89.12 338.072 84.0333 340.965 80.58C343.952 77.1267 348.572 75.4 354.825 75.4H372.745V94.16H357.065C353.612 94.16 350.765 94.72 348.525 95.84C346.379 96.8667 344.792 98.5 343.765 100.74C342.739 102.887 342.225 105.64 342.225 109V151H318.425ZM301.345 151V132.8H364.625V151H301.345ZM301.345 93.6V75.4H332.985V93.6H301.345ZM407.691 152.68C403.117 152.68 398.917 151.84 395.091 150.16C391.264 148.48 388.184 146.007 385.851 142.74C383.611 139.473 382.491 135.507 382.491 130.84C382.491 124.493 384.591 119.547 388.791 116C393.084 112.453 398.451 109.933 404.891 108.44L425.891 103.68C425.891 100.04 425.237 97.1467 423.931 95C422.717 92.76 420.291 91.64 416.651 91.64C413.757 91.64 411.564 92.48 410.071 94.16C408.577 95.7467 407.691 97.6133 407.411 99.76L383.051 98.64C384.451 91.08 388.091 85.06 393.971 80.58C399.944 76.0067 407.317 73.72 416.091 73.72C428.131 73.72 436.717 76.4733 441.851 81.98C447.077 87.4867 449.691 95.28 449.691 105.36V128.88C449.691 130.933 450.017 132.333 450.671 133.08C451.324 133.827 452.211 134.2 453.331 134.2H455.291V151C454.731 151.093 453.751 151.233 452.351 151.42C451.044 151.7 449.597 151.84 448.011 151.84C443.904 151.84 440.404 151.093 437.511 149.6C434.617 148.107 432.377 146.007 430.791 143.3C429.297 140.593 428.457 137.467 428.271 133.92H430.231C429.951 137.467 428.877 140.687 427.011 143.58C425.237 146.38 422.717 148.62 419.451 150.3C416.277 151.887 412.357 152.68 407.691 152.68ZM413.431 135.88C415.951 135.88 418.144 135.413 420.011 134.48C421.877 133.453 423.324 131.96 424.351 130C425.377 127.947 425.891 125.427 425.891 122.44V119.36L413.291 122.44C410.957 123 409.277 123.84 408.251 124.96C407.317 126.08 406.851 127.76 406.851 130C406.851 131.773 407.364 133.22 408.391 134.34C409.511 135.367 411.191 135.88 413.431 135.88ZM495.836 151V75.4H519.636V151H495.836ZM469.236 151V132.8H542.036V151H469.236ZM470.636 93.6V75.4H513.756V93.6H470.636ZM495.696 67.84V49.36H519.496V67.84H495.696ZM553.741 151V75.4H575.441L576.141 96.96L573.901 96.4C574.741 91.1733 576.235 86.88 578.381 83.52C580.528 80.16 583.235 77.6867 586.501 76.1C589.861 74.5133 593.688 73.72 597.981 73.72C603.208 73.72 607.408 74.8867 610.581 77.22C613.755 79.5533 616.088 82.82 617.581 87.02C619.075 91.22 619.821 96.1667 619.821 101.86V151H596.021V106.76C596.021 102 595.321 98.64 593.921 96.68C592.521 94.6267 590.468 93.6 587.761 93.6C585.988 93.6 584.308 94.16 582.721 95.28C581.228 96.3067 579.968 97.8933 578.941 100.04C578.008 102.187 577.541 104.893 577.541 108.16V151H553.741Z"
    fill="#333333" />
  <path
    d="M684.6 151V51.6H708.12C716.707 51.6 724.173 53.56 730.52 57.48C736.96 61.3067 741.907 66.9533 745.36 74.42C748.907 81.7933 750.68 90.8 750.68 101.44C750.68 112.08 748.907 121.087 745.36 128.46C741.907 135.833 736.96 141.433 730.52 145.26C724.173 149.087 716.707 151 708.12 151H684.6ZM696.64 139.24H707.42C717.127 139.24 724.64 136.113 729.96 129.86C735.373 123.513 738.08 114.04 738.08 101.44C738.08 88.84 735.373 79.3667 729.96 73.02C724.64 66.58 717.127 63.36 707.42 63.36H696.64V139.24ZM797.945 152.68C791.132 152.68 785.159 151.093 780.025 147.92C774.985 144.747 771.065 140.267 768.265 134.48C765.465 128.6 764.065 121.74 764.065 113.9C764.065 105.967 765.465 99.1067 768.265 93.32C771.065 87.5333 774.985 83.0533 780.025 79.88C785.159 76.7067 791.132 75.12 797.945 75.12C804.759 75.12 810.685 76.7067 815.725 79.88C820.859 83.0533 824.825 87.5333 827.625 93.32C830.425 99.1067 831.825 105.967 831.825 113.9C831.825 121.74 830.425 128.6 827.625 134.48C824.825 140.267 820.859 144.747 815.725 147.92C810.685 151.093 804.759 152.68 797.945 152.68ZM797.945 141.48C804.759 141.48 810.032 139.053 813.765 134.2C817.592 129.253 819.505 122.487 819.505 113.9C819.505 105.313 817.592 98.5933 813.765 93.74C810.032 88.7933 804.759 86.32 797.945 86.32C791.132 86.32 785.812 88.7933 781.985 93.74C778.252 98.5933 776.385 105.313 776.385 113.9C776.385 122.487 778.252 129.253 781.985 134.2C785.812 139.053 791.132 141.48 797.945 141.48ZM883.851 152.68C876.944 152.68 870.924 151.093 865.791 147.92C860.657 144.747 856.691 140.267 853.891 134.48C851.091 128.6 849.691 121.74 849.691 113.9C849.691 106.06 851.091 99.2467 853.891 93.46C856.691 87.6733 860.657 83.1933 865.791 80.02C870.924 76.7533 876.944 75.12 883.851 75.12C889.357 75.12 894.257 76.1467 898.551 78.2C902.844 80.16 906.391 83.0533 909.191 86.88C911.991 90.7067 913.904 95.3733 914.931 100.88L902.611 101.72C901.491 96.7733 899.251 92.9933 895.891 90.38C892.624 87.6733 888.611 86.32 883.851 86.32C877.037 86.32 871.671 88.7933 867.751 93.74C863.924 98.5933 862.011 105.313 862.011 113.9C862.011 122.487 863.924 129.253 867.751 134.2C871.671 139.053 877.037 141.48 883.851 141.48C888.611 141.48 892.717 140.08 896.171 137.28C899.717 134.48 902.051 130.28 903.171 124.68L915.491 125.52C914.464 131.027 912.504 135.833 909.611 139.94C906.717 143.953 903.077 147.08 898.691 149.32C894.304 151.56 889.357 152.68 883.851 152.68ZM967.236 152.68C960.796 152.68 955.243 151.56 950.576 149.32C945.909 147.08 942.223 144.093 939.516 140.36C936.903 136.533 935.409 132.287 935.036 127.62L947.356 126.78C948.103 131.353 950.109 134.947 953.376 137.56C956.736 140.173 961.356 141.48 967.236 141.48C972.743 141.48 976.989 140.687 979.976 139.1C983.056 137.513 984.596 135.04 984.596 131.68C984.596 129.533 984.083 127.76 983.056 126.36C982.029 124.96 980.116 123.793 977.316 122.86C974.516 121.833 970.409 120.853 964.996 119.92C957.809 118.613 952.163 117.027 948.056 115.16C944.043 113.2 941.196 110.773 939.516 107.88C937.836 104.987 936.996 101.533 936.996 97.52C936.996 93.2267 938.069 89.4 940.216 86.04C942.363 82.68 945.536 80.02 949.736 78.06C953.936 76.1 959.069 75.12 965.136 75.12C971.296 75.12 976.429 76.24 980.536 78.48C984.736 80.6267 988.049 83.52 990.476 87.16C992.903 90.7067 994.489 94.6267 995.236 98.92L982.916 99.76C982.356 97.1467 981.283 94.86 979.696 92.9C978.203 90.8467 976.196 89.26 973.676 88.14C971.249 86.9267 968.356 86.32 964.996 86.32C959.583 86.32 955.569 87.3933 952.956 89.54C950.343 91.6867 949.036 94.3467 949.036 97.52C949.036 100.04 949.643 102.047 950.856 103.54C952.069 105.033 954.029 106.247 956.736 107.18C959.443 108.02 963.036 108.813 967.516 109.56C975.169 110.773 981.096 112.36 985.296 114.32C989.496 116.187 992.436 118.52 994.116 121.32C995.796 124.12 996.636 127.573 996.636 131.68C996.636 136.067 995.329 139.847 992.716 143.02C990.196 146.1 986.696 148.48 982.216 150.16C977.829 151.84 972.836 152.68 967.236 152.68Z"
    fill="#ED64A6" />
</svg>