<svg width="590" height="191" viewBox="0 0 590 191" fill="none" xmlns="http://www.w3.org/2000/svg">
  <mask id="mask0_10_43" style="mask-type:luminance" maskUnits="userSpaceOnUse" x="0" y="25" width="166" height="141">
    <path d="M166 25.0283H0V165.972H166V25.0283Z" fill="white" />
  </mask>
  <g mask="url(#mask0_10_43)">
    <path
      d="M155.736 110.787C155.736 114.033 155.147 117.138 154.068 120.001C150.377 129.778 140.999 136.724 130.008 136.724C118.761 136.724 109.204 129.449 105.704 119.309C84.9262 120.815 73.0446 111.452 68.1043 93.6053C55.6249 90.1834 46.4519 78.6795 46.4519 65.0122C46.4519 56.173 50.2911 48.236 56.38 42.8104C61.5611 38.1858 68.3753 35.3804 75.8401 35.3804C84.3921 35.3804 92.0931 39.0619 97.4568 44.9466C101.065 42.5679 105.376 41.1891 110.007 41.1891C113.239 41.1891 116.319 41.8634 119.11 43.0789C127.186 46.5936 132.866 54.6443 132.992 64.048C132.996 64.158 132.996 64.2637 132.996 64.3741L132.992 64.7661V64.7704C134.166 64.5105 135.385 64.3741 136.639 64.3741C142.239 64.3741 147.215 67.0785 150.35 71.2624H150.355C152.53 74.1649 153.819 77.7807 153.819 81.7006C153.826 85.766 152.406 89.7028 149.809 92.8125C149.614 93.0523 149.411 93.2859 149.201 93.5128C153.268 98.0977 155.736 104.154 155.736 110.787Z"
      fill="#FF5CAA" />
    <path
      d="M109.718 62.9169C105.064 68.0175 102.221 74.8259 102.221 82.3041C102.221 98.1201 114.938 110.942 130.623 110.942C132.647 110.943 134.665 110.727 136.644 110.297M74.5947 53.6728C75.3053 64.016 83.8519 72.1843 94.2903 72.1843M125.689 68.3433C127.8 66.5747 130.304 65.3478 132.987 64.7675M97.4529 44.9433C94.1462 47.1142 91.4292 50.1228 89.5992 53.6728"
      stroke="#103849" stroke-width="4.48173" stroke-miterlimit="10" stroke-linecap="round" stroke-linejoin="round" />
    <path
      d="M155.733 110.782C155.733 125.109 144.215 136.72 130.005 136.72C118.758 136.72 109.201 129.444 105.701 119.305C84.9232 120.81 73.0417 111.447 68.1014 93.6006C55.622 90.1788 46.449 78.6749 46.449 65.0077C46.449 48.6416 59.6053 35.3757 75.8372 35.3757C84.3891 35.3757 92.0901 39.0573 97.4546 44.942C101.062 42.5633 105.373 41.1846 110.004 41.1846C122.701 41.1846 132.993 51.5661 132.993 64.3694L132.989 64.7616V64.7659C134.163 64.5059 135.382 64.3694 136.636 64.3694C146.123 64.3694 153.815 72.1252 153.815 81.6961C153.815 86.2634 152.064 90.4123 149.198 93.5082C153.265 98.0931 155.733 104.149 155.733 110.782Z"
      stroke="#103849" stroke-width="3.92125" stroke-miterlimit="10" stroke-linejoin="round" />
    <path
      d="M149.199 93.5082C149.199 93.5082 147.205 91.4215 144.477 89.2496M72.4834 140.547C71.3573 138.175 70.6368 135.629 70.3523 133.014"
      stroke="#103849" stroke-width="4.48173" stroke-miterlimit="10" stroke-linecap="round" stroke-linejoin="round" />
    <path
      d="M122.928 122.509C123.837 125.053 124.301 127.737 124.299 130.441C124.299 144.35 112.191 155.62 97.2516 155.62C86.1742 155.62 76.6558 149.423 72.4802 140.549C69.0387 142.905 64.9102 144.28 60.4767 144.28C50.5356 144.28 42.1485 137.382 39.5191 127.948C37.6419 128.42 35.7143 128.658 33.7795 128.657C20.7932 128.657 10.2617 118.042 10.2617 104.944C10.2617 94.8843 16.4773 86.2873 25.2483 82.8473C24.9034 81.4074 24.7199 79.9144 24.7199 78.3816C24.7199 66.5031 35.6665 56.8751 49.1724 56.8751C56.9258 56.8751 63.8442 60.0545 68.3216 65.005C71.9125 63.0628 76.0534 61.9489 80.4652 61.9489C94.1501 61.9489 105.245 72.6472 105.245 85.8424C105.246 86.1535 105.239 86.4648 105.223 86.7756C116.515 88.8632 125.097 99.3197 125.097 111.907C125.097 115.69 124.324 119.281 122.928 122.509Z"
      fill="#FF5CAA" />
    <path
      d="M114.156 110.788C118.187 113.791 121.272 117.852 122.931 122.512M39.523 127.951C38.9637 125.952 38.6666 123.841 38.6666 121.657C38.6666 112.742 43.642 105.031 50.8669 101.344M31.3767 81.3615C29.2364 81.5819 27.1834 82.0886 25.2524 82.8503M68.3306 65.0124L68.3257 65.0081C65.2554 66.6819 62.5909 68.9638 60.5074 71.6856"
      stroke="#103849" stroke-width="4.48173" stroke-miterlimit="10" stroke-linecap="round" stroke-linejoin="round" />
    <path
      d="M122.94 122.51C123.849 125.054 124.313 127.738 124.311 130.442C124.311 144.352 112.203 155.622 97.2636 155.622C86.187 155.622 76.6684 149.425 72.4927 140.55C69.0512 142.907 64.9227 144.281 60.4892 144.281C50.548 144.281 42.161 137.384 39.5317 127.95C37.6543 128.421 35.7267 128.66 33.792 128.658C20.8057 128.658 10.2742 118.044 10.2742 104.946C10.2742 94.886 16.4899 86.2889 25.2608 82.8488C24.9158 81.4089 24.7324 79.9159 24.7324 78.3832C24.7324 66.5046 35.679 56.8766 49.1849 56.8766C56.9383 56.8766 63.8567 60.056 68.3341 65.0067C71.9249 63.0643 76.0658 61.9505 80.478 61.9505C94.1628 61.9505 105.257 72.6488 105.257 85.844C105.259 86.1551 105.251 86.4663 105.235 86.7771C116.527 88.8648 125.11 99.3212 125.11 111.909C125.11 115.692 124.337 119.282 122.94 122.509L122.94 122.51Z"
      stroke="#103849" stroke-width="3.92125" stroke-miterlimit="10" stroke-linejoin="round" />
    <path
      d="M84.0851 93.8763C88.4356 89.2607 94.4421 86.402 101.072 86.402C102.488 86.402 103.873 86.5298 105.222 86.7802M103.666 116.782C100.239 121.103 94.9652 123.872 89.0503 123.872C78.7199 123.872 70.3462 115.428 70.3462 105.013C70.3396 100.664 71.83 96.447 74.5632 93.0825"
      stroke="#103849" stroke-width="4.48173" stroke-miterlimit="10" stroke-linecap="round" stroke-linejoin="round" />
    <path
      d="M97.3268 133.209C97.3268 129.505 96.4005 126.021 94.7663 122.978M58.2367 121.163C61.3204 116.556 66.1215 113.222 71.717 112.091M24.8914 104.964C27.2606 104.018 29.7861 103.531 32.3345 103.532C36.4207 103.527 40.4113 104.777 43.7742 107.118M63.3456 87.6064C62.0729 87.9843 60.7258 88.1868 59.3315 88.1868C55.631 88.1917 52.0757 86.7352 49.427 84.1294M124.732 86.6868C126.69 85.2139 129.068 84.4199 131.511 84.4237C132.19 84.4233 132.867 84.484 133.535 84.6051"
      stroke="#103849" stroke-width="4.48173" stroke-miterlimit="10" stroke-linecap="round" stroke-linejoin="round" />
    <path
      d="M151.22 93.5224C153.893 90.1779 155.352 86.0307 155.352 81.7007C155.352 71.2968 146.959 62.8322 136.643 62.8322C135.922 62.8322 135.202 62.8745 134.489 62.9577C133.759 49.9799 123.058 39.6479 110.01 39.6479C105.66 39.6479 101.433 40.7965 97.7098 42.9806C91.9084 37.135 84.0445 33.8475 75.8431 33.8389C62.0965 33.8389 50.4219 42.9343 46.4144 55.4682C33.3845 56.6974 23.1996 66.5048 23.1996 78.3843C23.1996 79.5665 23.3021 80.7507 23.5043 81.9187C14.4931 85.991 8.7417 94.8923 8.7417 104.946C8.7417 118.872 19.9775 130.201 33.7881 130.201C35.3652 130.201 36.9389 130.053 38.4886 129.758C41.7666 139.286 50.6165 145.823 60.4857 145.823C64.4901 145.826 68.4246 144.764 71.8926 142.746C76.7752 151.559 86.5424 157.164 97.2603 157.164C110.309 157.164 121.336 148.939 124.743 137.745C126.456 138.085 128.219 138.265 130.012 138.265C145.041 138.265 157.269 125.938 157.269 110.787C157.269 104.475 155.13 98.396 151.22 93.5224Z"
      stroke="#103849" stroke-width="7.84292" stroke-miterlimit="10" stroke-linejoin="round" />
    <path
      d="M75.8377 25.0283C67.7626 25.0283 59.9951 27.4529 53.3751 32.0395C47.6591 35.9997 43.128 41.3414 40.135 47.6137C25.566 51.1736 15.1498 62.9949 14.4913 76.9737C5.47396 83.2866 0 93.71 0 104.945C0 123.531 14.8399 138.687 33.1986 139.003C38.9955 148.607 49.3296 154.63 60.4802 154.63C63.3288 154.63 66.1281 154.25 68.8433 153.495C75.8708 161.375 86.1955 165.972 97.2549 165.972C104.746 165.972 112.002 163.829 118.24 159.779C123.308 156.488 127.392 152.143 130.218 147.071C149.968 146.957 165.999 130.723 165.999 110.785C165.999 104.625 164.471 98.6477 161.552 93.3033C163.22 89.666 164.083 85.7062 164.082 81.6987C164.082 74.4404 161.307 67.5769 156.269 62.3733C152.296 58.2693 147.267 55.5584 141.795 54.5092C139.944 48.4541 136.402 42.9984 131.56 38.8402C125.545 33.6773 117.905 30.8404 110.006 30.8368C106.323 30.8368 102.628 31.4667 99.1458 32.6737C92.3821 27.7221 84.2309 25.0283 75.8377 25.0283ZM75.8377 30.7539C84.025 30.7539 92.0548 33.8196 98.2047 39.2324C101.893 37.4736 105.924 36.562 110.005 36.563C123.596 36.563 135.01 46.5295 137.202 59.7548C148.943 60.0584 158.403 69.7858 158.403 81.699C158.399 85.8733 157.218 89.9602 154.998 93.4833C158.444 98.547 160.32 104.605 160.32 110.785C160.32 127.637 146.721 141.347 130.006 141.347C128.925 141.347 127.84 141.288 126.76 141.17C122.095 152.524 110.339 160.246 97.2541 160.246C86.4633 160.246 76.5745 155.143 70.7726 146.753C67.5233 148.171 64.0207 148.903 60.4802 148.905C50.1646 148.905 40.8344 142.668 36.5382 133.148C35.6228 133.238 34.7019 133.283 33.7826 133.283C18.2863 133.283 5.67871 120.571 5.67871 104.945C5.67871 94.5711 11.3096 85.0673 20.2018 80.1319C20.1587 79.5498 20.1371 78.9663 20.1369 78.3825C20.1369 65.5662 30.332 54.7986 44.1589 52.6423C49.2103 39.4698 61.7013 30.7539 75.8377 30.7539Z"
      fill="#F0F0F0" />
  </g>
  <path
    d="M222.16 146V48H268.08C279.84 48 288.8 50.3333 294.96 55C301.12 59.5733 304.2 65.7333 304.2 73.48C304.2 78.7067 302.987 83.1867 300.56 86.92C298.133 90.56 294.867 93.4067 290.76 95.46C286.747 97.42 282.36 98.4 277.6 98.4L280.12 93.36C285.627 93.36 290.573 94.3867 294.96 96.44C299.347 98.4 302.8 101.293 305.32 105.12C307.933 108.947 309.24 113.707 309.24 119.4C309.24 127.8 306.02 134.333 299.58 139C293.14 143.667 283.573 146 270.88 146H222.16ZM240.36 131.72H269.76C276.573 131.72 281.8 130.6 285.44 128.36C289.08 126.12 290.9 122.527 290.9 117.58C290.9 112.727 289.08 109.18 285.44 106.94C281.8 104.607 276.573 103.44 269.76 103.44H238.96V89.3H266.12C272.467 89.3 277.32 88.18 280.68 85.94C284.133 83.7 285.86 80.34 285.86 75.86C285.86 71.2867 284.133 67.88 280.68 65.64C277.32 63.4 272.467 62.28 266.12 62.28H240.36V131.72ZM326.984 146V71.24H343.644V91.82L341.684 85.8C343.924 80.76 347.424 76.9333 352.184 74.32C357.037 71.7067 363.057 70.4 370.244 70.4V87.06C369.497 86.8733 368.797 86.78 368.144 86.78C367.491 86.6867 366.837 86.64 366.184 86.64C359.557 86.64 354.284 88.6 350.364 92.52C346.444 96.3467 344.484 102.087 344.484 109.74V146H326.984ZM425.817 146V130.88L424.837 127.66V101.2C424.837 96.0667 423.297 92.1 420.217 89.3C417.137 86.4067 412.471 84.96 406.217 84.96C402.017 84.96 397.864 85.6133 393.757 86.92C389.744 88.2267 386.337 90.0467 383.537 92.38L376.677 79.64C380.691 76.56 385.451 74.2733 390.957 72.78C396.557 71.1933 402.344 70.4 408.317 70.4C419.144 70.4 427.497 73.0133 433.377 78.24C439.351 83.3733 442.337 91.3533 442.337 102.18V146H425.817ZM402.297 146.98C396.697 146.98 391.797 146.047 387.597 144.18C383.397 142.22 380.131 139.56 377.797 136.2C375.557 132.747 374.437 128.873 374.437 124.58C374.437 120.38 375.417 116.6 377.377 113.24C379.431 109.88 382.744 107.22 387.317 105.26C391.891 103.3 397.957 102.32 405.517 102.32H427.217V113.94H406.777C400.804 113.94 396.791 114.92 394.737 116.88C392.684 118.747 391.657 121.08 391.657 123.88C391.657 127.053 392.917 129.573 395.437 131.44C397.957 133.307 401.457 134.24 405.937 134.24C410.231 134.24 414.057 133.26 417.417 131.3C420.871 129.34 423.344 126.447 424.837 122.62L427.777 133.12C426.097 137.507 423.064 140.913 418.677 143.34C414.384 145.767 408.924 146.98 402.297 146.98ZM464.796 146V71.24H482.296V146H464.796ZM473.616 58.92C470.35 58.92 467.643 57.8933 465.496 55.84C463.443 53.7867 462.416 51.3133 462.416 48.42C462.416 45.4333 463.443 42.96 465.496 41C467.643 38.9467 470.35 37.92 473.616 37.92C476.883 37.92 479.543 38.9 481.596 40.86C483.743 42.7267 484.816 45.1067 484.816 48C484.816 51.08 483.79 53.6933 481.736 55.84C479.683 57.8933 476.976 58.92 473.616 58.92ZM547.685 70.4C553.658 70.4 558.978 71.5667 563.645 73.9C568.405 76.2333 572.138 79.8267 574.845 84.68C577.552 89.44 578.905 95.6 578.905 103.16V146H561.405V105.4C561.405 98.7733 559.818 93.8267 556.645 90.56C553.565 87.2933 549.225 85.66 543.625 85.66C539.518 85.66 535.878 86.5 532.705 88.18C529.532 89.86 527.058 92.38 525.285 95.74C523.605 99.0067 522.765 103.16 522.765 108.2V146H505.265V71.24H521.925V91.4L518.985 85.24C521.598 80.48 525.378 76.84 530.325 74.32C535.365 71.7067 541.152 70.4 547.685 70.4Z"
    fill="#0F172A" />
</svg>